<?xml version="1.0" encoding="UTF-8" standalone="no"?>
<!DOCTYPE svg PUBLIC "-//W3C//DTD SVG 1.1//EN" "http://www.w3.org/Graphics/SVG/1.1/DTD/svg11.dtd">
<!-- Created with Vectornator (http://vectornator.io/) -->
<svg height="100%" stroke-miterlimit="10" style="fill-rule:nonzero;clip-rule:evenodd;stroke-linecap:round;stroke-linejoin:round;" version="1.1" viewBox="0 0 1208.94 431.84" width="100%" xml:space="preserve" xmlns="http://www.w3.org/2000/svg" xmlns:vectornator="http://vectornator.io" xmlns:xlink="http://www.w3.org/1999/xlink">
<defs/>
<g id="Calque-1" vectornator:layerName="Calque 1">
<g opacity="1" vectornator:layerName="Grouper 2">
<g opacity="1" vectornator:layerName="Grouper 1">
<g opacity="1" vectornator:layerName="Grouper 1">
<g fill="#00c94d" opacity="1" stroke="none">
<path d="M96.6047 201.365L133.765 201.365L133.765 216.163C146.699 203.338 161.278 196.926 177.501 196.926C196.136 196.926 210.66 202.79 221.074 214.519C230.062 224.494 234.557 240.772 234.557 263.353L234.557 361.514L197.397 361.514L197.397 272.067C197.397 256.283 195.204 245.376 190.82 239.347C186.545 233.208 178.762 230.139 167.472 230.139C155.195 230.139 146.48 234.195 141.328 242.307C136.286 250.309 133.765 264.285 133.765 284.235L133.765 361.514L96.6047 361.514L96.6047 201.365Z"/>
<path d="M273.69 280.289C273.69 257.16 281.966 237.483 298.518 221.26C315.07 205.037 335.239 196.926 359.026 196.926C382.922 196.926 403.201 205.092 419.863 221.425C436.305 237.758 444.526 257.817 444.526 281.604C444.526 305.61 436.25 325.724 419.698 341.948C403.037 358.061 382.593 366.118 358.368 366.118C334.362 366.118 314.248 357.897 298.024 341.454C281.801 325.231 273.69 304.843 273.69 280.289ZM311.507 280.946C311.507 296.95 315.782 309.611 324.332 318.928C333.101 328.355 344.666 333.069 359.026 333.069C373.495 333.069 385.06 328.41 393.719 319.093C402.379 309.775 406.709 297.334 406.709 281.768C406.709 266.203 402.379 253.761 393.719 244.444C384.95 235.017 373.385 230.304 359.026 230.304C344.885 230.304 333.43 235.017 324.661 244.444C315.892 253.871 311.507 266.038 311.507 280.946Z"/>
<path d="M483.659 201.365L520.655 201.365L520.655 215.67C527.451 208.545 533.48 203.667 538.741 201.036C544.113 198.296 550.47 196.926 557.815 196.926C567.57 196.926 577.765 200.104 588.397 206.462L571.462 240.334C564.446 235.291 557.595 232.77 550.909 232.77C530.739 232.77 520.655 248.007 520.655 278.48L520.655 361.514L483.659 361.514L483.659 201.365Z"/>
<path d="M614.705 201.365L651.701 201.365L651.701 216.163C658.826 208.709 664.91 203.667 669.952 201.036C675.323 198.296 682.064 196.926 690.176 196.926C708.263 196.926 722.568 204.818 733.091 220.603C744.71 204.818 760.44 196.926 780.281 196.926C816.344 196.926 834.376 218.794 834.376 262.531L834.376 361.514L797.216 361.514L797.216 272.561C797.216 257.214 795.353 246.362 791.626 240.005C787.789 233.537 781.486 230.304 772.717 230.304C762.523 230.304 755.096 234.14 750.438 241.813C745.779 249.486 743.449 261.818 743.449 278.809L743.449 361.514L706.29 361.514L706.29 273.054C706.29 244.554 698.068 230.304 681.626 230.304C671.212 230.304 663.622 234.195 658.853 241.978C654.085 249.76 651.701 262.037 651.701 278.809L651.701 361.514L614.705 361.514L614.705 201.365Z"/>
<path d="M918.068 201.365L918.068 361.514L881.073 361.514L881.073 201.365L918.068 201.365ZM875.482 134.773C875.482 128.306 877.839 122.715 882.552 118.002C887.266 113.288 892.911 110.932 899.488 110.932C906.175 110.932 911.875 113.288 916.588 118.002C921.302 122.606 923.658 128.251 923.658 134.938C923.658 141.624 921.302 147.324 916.588 152.038C911.984 156.751 906.339 159.108 899.652 159.108C892.966 159.108 887.266 156.751 882.552 152.038C877.839 147.324 875.482 141.569 875.482 134.773Z"/>
<path d="M1082.99 201.365L1120.15 201.365L1120.15 361.514L1082.99 361.514L1082.99 344.743C1067.75 358.993 1051.36 366.118 1033.82 366.118C1011.68 366.118 993.374 358.116 978.905 342.112C964.545 325.779 957.365 305.391 957.365 280.946C957.365 256.94 964.545 236.935 978.905 220.931C993.265 204.927 1011.24 196.926 1032.84 196.926C1051.47 196.926 1068.19 204.599 1082.99 219.945L1082.99 201.365ZM995.183 280.946C995.183 296.293 999.294 308.789 1007.51 318.435C1015.96 328.191 1026.59 333.069 1039.41 333.069C1053.12 333.069 1064.19 328.355 1072.63 318.928C1081.07 309.172 1085.29 296.786 1085.29 281.768C1085.29 266.751 1081.07 254.364 1072.63 244.609C1064.19 235.072 1053.22 230.304 1039.74 230.304C1027.03 230.304 1016.39 235.127 1007.84 244.773C999.403 254.529 995.183 266.587 995.183 280.946Z"/>
</g>
<g fill="#000000" opacity="1" stroke="none">
<path d="M103.038 121.245L133.597 121.245L133.597 127.357L96.3701 127.357L96.3701 61.7926L103.038 61.7926L103.038 121.245Z"/>
<path d="M149.34 121.245L184.437 121.245L184.437 127.357L142.673 127.357L142.673 61.7926L183.326 61.7926L183.326 67.9045L149.34 67.9045L149.34 90.2223L181.104 90.2223L181.104 96.3343L149.34 96.3343L149.34 121.245Z"/>
<path d="M228.61 72.6274C225.708 68.3676 221.479 66.2376 215.923 66.2376C214.195 66.2376 212.497 66.4692 210.83 66.9322C209.163 67.3952 207.666 68.1052 206.339 69.0621C205.011 70.019 203.946 71.2537 203.144 72.7663C202.341 74.2788 201.94 76.0538 201.94 78.0911C201.94 81.0544 202.773 83.3541 204.44 84.9902C206.107 86.6262 208.175 87.969 210.645 89.0185C213.114 90.068 215.815 91.0095 218.748 91.8429C221.68 92.6764 224.381 93.7876 226.851 95.1767C229.32 96.5658 231.388 98.4025 233.055 100.687C234.722 102.971 235.555 106.089 235.555 110.04C235.555 113.003 234.923 115.673 233.657 118.05C232.391 120.427 230.725 122.418 228.656 124.023C226.588 125.628 224.273 126.863 221.711 127.727C219.149 128.592 216.571 129.024 213.978 129.024C209.966 129.024 206.153 128.268 202.542 126.755C198.93 125.242 195.859 122.758 193.328 119.3L199.347 114.948C200.767 117.356 202.742 119.285 205.274 120.736C207.805 122.187 210.799 122.912 214.256 122.912C215.923 122.912 217.59 122.65 219.257 122.125C220.924 121.6 222.421 120.828 223.748 119.81C225.076 118.791 226.171 117.541 227.036 116.059C227.9 114.577 228.332 112.88 228.332 110.966C228.332 108.682 227.854 106.783 226.897 105.271C225.94 103.758 224.674 102.493 223.1 101.474C221.526 100.455 219.735 99.6063 217.729 98.9272C215.723 98.2481 213.654 97.569 211.524 96.8899C209.395 96.2108 207.326 95.4391 205.32 94.5748C203.313 93.7105 201.523 92.6146 199.949 91.2873C198.375 89.96 197.109 88.2931 196.152 86.2866C195.195 84.2802 194.717 81.7644 194.717 78.7393C194.717 75.5907 195.319 72.8435 196.522 70.4975C197.726 68.1515 199.331 66.2068 201.338 64.6634C203.344 63.1199 205.613 61.9778 208.144 61.237C210.676 60.4961 213.269 60.1257 215.923 60.1257C219.627 60.1257 222.992 60.7122 226.017 61.8852C229.042 63.0582 231.851 65.1264 234.444 68.0897L228.61 72.6274Z"/>
<path d="M280.562 121.245L293.526 121.245C298.527 121.245 302.864 120.489 306.537 118.976C310.211 117.464 313.267 115.457 315.705 112.957C318.144 110.457 319.95 107.617 321.123 104.437C322.296 101.258 322.882 97.9703 322.882 94.5748C322.882 91.1793 322.296 87.8918 321.123 84.7123C319.95 81.5329 318.144 78.693 315.705 76.1927C313.267 73.6923 310.211 71.6859 306.537 70.1734C302.864 68.6608 298.527 67.9045 293.526 67.9045L280.562 67.9045L280.562 121.245ZM273.894 61.7926L295.656 61.7926C299.731 61.7926 303.821 62.4717 307.926 63.8299C312.032 65.1881 315.736 67.2409 319.039 69.9881C322.342 72.7354 325.012 76.1618 327.049 80.2673C329.087 84.3728 330.105 89.142 330.105 94.5748C330.105 100.069 329.087 104.854 327.049 108.929C325.012 113.003 322.342 116.414 319.039 119.161C315.736 121.909 312.032 123.961 307.926 125.32C303.821 126.678 299.731 127.357 295.656 127.357L273.894 127.357L273.894 61.7926Z"/>
<path d="M350.108 121.245L385.205 121.245L385.205 127.357L343.44 127.357L343.44 61.7926L384.094 61.7926L384.094 67.9045L350.108 67.9045L350.108 90.2223L381.871 90.2223L381.871 96.3343L350.108 96.3343L350.108 121.245Z"/>
<path d="M429.378 72.6274C426.476 68.3676 422.247 66.2376 416.691 66.2376C414.962 66.2376 413.265 66.4692 411.598 66.9322C409.931 67.3952 408.434 68.1052 407.106 69.0621C405.779 70.019 404.714 71.2537 403.911 72.7663C403.109 74.2788 402.708 76.0538 402.708 78.0911C402.708 81.0544 403.541 83.3541 405.208 84.9902C406.875 86.6262 408.943 87.969 411.412 89.0185C413.882 90.068 416.583 91.0095 419.515 91.8429C422.448 92.6764 425.149 93.7876 427.618 95.1767C430.088 96.5658 432.156 98.4025 433.823 100.687C435.49 102.971 436.323 106.089 436.323 110.04C436.323 113.003 435.69 115.673 434.425 118.05C433.159 120.427 431.492 122.418 429.424 124.023C427.356 125.628 425.041 126.863 422.479 127.727C419.917 128.592 417.339 129.024 414.746 129.024C410.733 129.024 406.921 128.268 403.309 126.755C399.698 125.242 396.626 122.758 394.095 119.3L400.115 114.948C401.535 117.356 403.51 119.285 406.041 120.736C408.573 122.187 411.567 122.912 415.024 122.912C416.691 122.912 418.358 122.65 420.025 122.125C421.692 121.6 423.189 120.828 424.516 119.81C425.843 118.791 426.939 117.541 427.804 116.059C428.668 114.577 429.1 112.88 429.1 110.966C429.1 108.682 428.622 106.783 427.665 105.271C426.708 103.758 425.442 102.493 423.868 101.474C422.294 100.455 420.503 99.6063 418.497 98.9272C416.49 98.2481 414.422 97.569 412.292 96.8899C410.162 96.2108 408.094 95.4391 406.088 94.5748C404.081 93.7105 402.291 92.6146 400.717 91.2873C399.142 89.96 397.877 88.2931 396.92 86.2866C395.963 84.2802 395.484 81.7644 395.484 78.7393C395.484 75.5907 396.086 72.8435 397.29 70.4975C398.494 68.1515 400.099 66.2068 402.106 64.6634C404.112 63.1199 406.381 61.9778 408.912 61.237C411.443 60.4961 414.036 60.1257 416.691 60.1257C420.395 60.1257 423.76 60.7122 426.785 61.8852C429.81 63.0582 432.619 65.1264 435.212 68.0897L429.378 72.6274Z"/>
<path d="M480.866 72.6274C477.965 68.3676 473.736 66.2376 468.179 66.2376C466.451 66.2376 464.753 66.4692 463.086 66.9322C461.419 67.3952 459.922 68.1052 458.595 69.0621C457.267 70.019 456.202 71.2537 455.4 72.7663C454.597 74.2788 454.196 76.0538 454.196 78.0911C454.196 81.0544 455.029 83.3541 456.696 84.9902C458.363 86.6262 460.431 87.969 462.901 89.0185C465.37 90.068 468.071 91.0095 471.004 91.8429C473.936 92.6764 476.637 93.7876 479.107 95.1767C481.576 96.5658 483.644 98.4025 485.311 100.687C486.978 102.971 487.812 106.089 487.812 110.04C487.812 113.003 487.179 115.673 485.913 118.05C484.648 120.427 482.981 122.418 480.913 124.023C478.844 125.628 476.529 126.863 473.967 127.727C471.405 128.592 468.828 129.024 466.235 129.024C462.222 129.024 458.409 128.268 454.798 126.755C451.186 125.242 448.115 122.758 445.584 119.3L451.603 114.948C453.023 117.356 454.999 119.285 457.53 120.736C460.061 122.187 463.055 122.912 466.512 122.912C468.179 122.912 469.846 122.65 471.513 122.125C473.18 121.6 474.677 120.828 476.004 119.81C477.332 118.791 478.428 117.541 479.292 116.059C480.156 114.577 480.588 112.88 480.588 110.966C480.588 108.682 480.11 106.783 479.153 105.271C478.196 103.758 476.93 102.493 475.356 101.474C473.782 100.455 471.992 99.6063 469.985 98.9272C467.979 98.2481 465.91 97.569 463.781 96.8899C461.651 96.2108 459.582 95.4391 457.576 94.5748C455.57 93.7105 453.779 92.6146 452.205 91.2873C450.631 89.96 449.365 88.2931 448.408 86.2866C447.451 84.2802 446.973 81.7644 446.973 78.7393C446.973 75.5907 447.575 72.8435 448.779 70.4975C449.982 68.1515 451.588 66.2068 453.594 64.6634C455.6 63.1199 457.869 61.9778 460.4 61.237C462.932 60.4961 465.525 60.1257 468.179 60.1257C471.884 60.1257 475.248 60.7122 478.273 61.8852C481.298 63.0582 484.107 65.1264 486.7 68.0897L480.866 72.6274Z"/>
<path d="M507.999 127.357L501.332 127.357L501.332 61.7926L507.999 61.7926L507.999 127.357Z"/>
<path d="M573.193 117.356L573.379 117.356L573.379 61.7926L580.046 61.7926L580.046 127.357L571.712 127.357L532.632 71.2383L532.447 71.2383L532.447 127.357L525.78 127.357L525.78 61.7926L534.114 61.7926L573.193 117.356Z"/>
<path d="M628.849 72.6274C625.947 68.3676 621.718 66.2376 616.162 66.2376C614.434 66.2376 612.736 66.4692 611.069 66.9322C609.402 67.3952 607.905 68.1052 606.578 69.0621C605.25 70.019 604.185 71.2537 603.383 72.7663C602.58 74.2788 602.179 76.0538 602.179 78.0911C602.179 81.0544 603.012 83.3541 604.679 84.9902C606.346 86.6262 608.414 87.969 610.884 89.0185C613.353 90.068 616.054 91.0095 618.987 91.8429C621.919 92.6764 624.62 93.7876 627.09 95.1767C629.559 96.5658 631.627 98.4025 633.294 100.687C634.961 102.971 635.794 106.089 635.794 110.04C635.794 113.003 635.162 115.673 633.896 118.05C632.63 120.427 630.964 122.418 628.895 124.023C626.827 125.628 624.512 126.863 621.95 127.727C619.388 128.592 616.81 129.024 614.217 129.024C610.205 129.024 606.392 128.268 602.781 126.755C599.169 125.242 596.098 122.758 593.567 119.3L599.586 114.948C601.006 117.356 602.981 119.285 605.513 120.736C608.044 122.187 611.038 122.912 614.495 122.912C616.162 122.912 617.829 122.65 619.496 122.125C621.163 121.6 622.66 120.828 623.987 119.81C625.315 118.791 626.41 117.541 627.275 116.059C628.139 114.577 628.571 112.88 628.571 110.966C628.571 108.682 628.093 106.783 627.136 105.271C626.179 103.758 624.913 102.493 623.339 101.474C621.765 100.455 619.974 99.6063 617.968 98.9272C615.962 98.2481 613.893 97.569 611.763 96.8899C609.634 96.2108 607.565 95.4391 605.559 94.5748C603.552 93.7105 601.762 92.6146 600.188 91.2873C598.614 89.96 597.348 88.2931 596.391 86.2866C595.434 84.2802 594.956 81.7644 594.956 78.7393C594.956 75.5907 595.558 72.8435 596.761 70.4975C597.965 68.1515 599.57 66.2068 601.577 64.6634C603.583 63.1199 605.852 61.9778 608.383 61.237C610.915 60.4961 613.507 60.1257 616.162 60.1257C619.866 60.1257 623.231 60.7122 626.256 61.8852C629.281 63.0582 632.09 65.1264 634.683 68.0897L628.849 72.6274Z"/>
<path d="M680.8 121.245L693.765 121.245C698.766 121.245 703.103 120.489 706.776 118.976C710.45 117.464 713.506 115.457 715.944 112.957C718.383 110.457 720.188 107.617 721.361 104.437C722.534 101.258 723.121 97.9703 723.121 94.5748C723.121 91.1793 722.534 87.8918 721.361 84.7123C720.188 81.5329 718.383 78.693 715.944 76.1927C713.506 73.6923 710.45 71.6859 706.776 70.1734C703.103 68.6608 698.766 67.9045 693.765 67.9045L680.8 67.9045L680.8 121.245ZM674.133 61.7926L695.895 61.7926C699.97 61.7926 704.06 62.4717 708.165 63.8299C712.271 65.1881 715.975 67.2409 719.278 69.9881C722.581 72.7354 725.251 76.1618 727.288 80.2673C729.326 84.3728 730.344 89.142 730.344 94.5748C730.344 100.069 729.326 104.854 727.288 108.929C725.251 113.003 722.581 116.414 719.278 119.161C715.975 121.909 712.271 123.961 708.165 125.32C704.06 126.678 699.97 127.357 695.895 127.357L674.133 127.357L674.133 61.7926Z"/>
<path d="M750.347 121.245L785.444 121.245L785.444 127.357L743.679 127.357L743.679 61.7926L784.333 61.7926L784.333 67.9045L750.347 67.9045L750.347 90.2223L782.11 90.2223L782.11 96.3343L750.347 96.3343L750.347 121.245Z"/>
</g>
</g>
</g>
</g>
</g>
</svg>
